<svg xmlns="http://www.w3.org/2000/svg" width="250" height="40" data-img-replace="/images/home/deviceatlas-white.png" class="responsive" viewBox="0 0 246.34 40">
    <title>DeviceAtlas</title>
    <path fill="#23ac9d" d="M175.3 39.5h-1.78a.58.58 0 0 1-.67-.5l-5-14.09h-13.7L149.34 39c-.28.78-1.34.5-2 .5-.5 0-1-.11-1-.72a2 2 0 0 1 .11-.61l11.81-34c.83-2.45.89-2.23 3.51-2.23 1.84 0 1.89.61 2.45 2.23l12 34.09a2 2 0 0 1 .11.56c-.03.57-.53.68-1.03.68zM160.87 4.79l-5.74 17.33h11.75zm25.63 35.15c-4.46 0-7-2.62-7-7V14.09h-3.2c-.89 0-.72-1.06-.72-1.62a.74.74 0 0 1 .72-.72h3.23V4.51a.74.74 0 0 1 .72-.72h2a.74.74 0 0 1 .72.72v7.24h8.3c.89 0 .72 1.06.72 1.62a.74.74 0 0 1-.72.72h-8.3V33c0 2.84 1.39 4.62 4.35 4.62a10.12 10.12 0 0 0 3.62-.84c.06 0 .5-.17.56-.17.67 0 .5.95.5 1.39 0 1.78-4.33 1.94-5.5 1.94zm11.75-.44h-1.89a.74.74 0 0 1-.72-.72V.72a.74.74 0 0 1 .72-.72h1.89a.75.75 0 0 1 .78.72v38a.75.75 0 0 1-.78.78zm23.49 0c-1.5 0-.28-1.45-1.28-1.45a5.24 5.24 0 0 0-1.11.39 17.7 17.7 0 0 1-6.74 1.5c-4.68 0-9.19-2-9.19-7.3 0-4.9 4.29-6.8 8.3-8.25l6.85-2.45c2-.72 1.78-1.56 1.78-3.45 0-3.79-2.45-4.9-5.91-4.9a14.89 14.89 0 0 0-8.08 2.4 1.72 1.72 0 0 1-.67.28c-.72 0-.56-1.45-.56-1.89 0-2 8.08-3.06 9.75-3.06 2.56 0 5.12.22 7 2.12 1.62 1.62 1.84 3.18 1.84 5.4v19.93c.03.95-1.36.73-1.98.73zM220.35 24l-6.24 2.12c-3.29 1.11-7.3 2.56-7.3 6.63 0 3.4 3.06 4.9 6.07 4.9 2.17 0 7.47-.28 7.47-3.45zm14.49 16a13.36 13.36 0 0 1-6.57-1.62c-.56-.33-.67-.39-.67-1.06v-1c0-.33.11-.61.5-.61a2.46 2.46 0 0 1 .83.28 10.58 10.58 0 0 0 5.46 1.62c3 0 5.57-1.39 5.57-4.68 0-2.56-1.5-3.57-3.45-4.9l-3.84-2.62c-2.68-1.84-4.57-3.29-4.57-6.74 0-4.9 3.51-7.35 8.13-7.35 1.34 0 6.57.67 6.57 2.62v1a.56.56 0 0 1-.5.61A3.21 3.21 0 0 1 241 15a10.11 10.11 0 0 0-4.9-1.34c-2.73 0-5.18 1.34-5.18 4.34 0 2.34 1.34 3.12 3.18 4.35l4.74 3.17c2.79 1.89 4.51 3.4 4.51 7 .01 4.92-3.89 7.48-8.51 7.48z"
    />
    <path fill="#fff" d="M13.19 39.48H.61a.62.62 0 0 1-.61-.61V3a.62.62 0 0 1 .61-.61h14c10.52 0 16.81 8 16.81 18.09.03 11.1-6.82 19-18.23 19zM12.3 6.36H5.4v29.11h6.18c4.23 0 7.51-.95 10.41-4.17a15.79 15.79 0 0 0 3.78-10.74c0-8.41-4.84-14.2-13.47-14.2zm45.81 19.76H39.57v.33C39.57 32 43 36 48.64 36c2.23 0 4.79-1.11 6.73-2.06a3 3 0 0 1 1.17-.44c1.17 0 .78 2.34.78 3.06 0 1.06-.33 1.11-1.22 1.56a21.33 21.33 0 0 1-8.29 1.78c-8.52 0-13.41-5.79-13.41-14.08 0-7.9 4-14.69 12.58-14.69 7.51 0 12 5.34 12 12.63v1.5a.86.86 0 0 1-.87.86zm-4.34-4.45c0-4.12-3-6.68-7-6.68a7 7 0 0 0-7.18 7.24h14.17zm30.59-8.57L75.9 37.31c-.56 1.61-.56 2.62-2.56 2.62h-2.67c-2 0-1.95-.83-2.56-2.5L59.6 13.1a3.4 3.4 0 0 1-.17-.72c0-.72.72-.78 1.28-.78h3.51a.84.84 0 0 1 .78.56l7.46 22.71 7.46-22.71a.91.91 0 0 1 .84-.56h2.84c.5 0 1 .17 1 .72a4.12 4.12 0 0 1-.24.78zm7.3 26.38h-3.51a.86.86 0 0 1-.83-.84V12.43a.86.86 0 0 1 .83-.84h3.51a.86.86 0 0 1 .83.84v26.21a.86.86 0 0 1-.83.84zm26.5-1.11c-1.89 1.11-5.84 1.56-8 1.56-9 0-13.91-5.51-13.91-14.3 0-9 5.68-14.47 14.64-14.47 1.39 0 8 .72 8 2.45v2.62c0 .45-.22.95-.72.95a1.74 1.74 0 0 1-.89-.33 12.73 12.73 0 0 0-6.52-1.85c-6.34 0-9.07 4.45-9.07 10.35S104.41 36 110.87 36a13.33 13.33 0 0 0 6.13-1.64 2.76 2.76 0 0 1 1.11-.45c1.06 0 .72 2.56.72 3.23a1.12 1.12 0 0 1-.67 1.23zm26.32-12.25h-18.53v.33c0 5.55 3.39 9.55 9.05 9.55 2.23 0 4.79-1.11 6.73-2.06a3 3 0 0 1 1.17-.44c1.17 0 .78 2.34.78 3.06 0 1.06-.33 1.11-1.22 1.56a21.33 21.33 0 0 1-8.29 1.78c-8.51 0-13.41-5.79-13.41-14.08 0-7.9 4-14.69 12.58-14.69 7.51 0 12 5.34 12 12.63v1.5a.86.86 0 0 1-.86.86zm-4.34-4.45c0-4.12-3-6.68-7-6.68a7 7 0 0 0-7.18 7.24h14.19z"
    />
    <path fill="#23ac9d" d="M89.88 6.75c-2.06 0-3.12-1.11-3.12-3.17A2.87 2.87 0 0 1 89.93.52a2.82 2.82 0 0 1 3.12 3.12c0 2.11-1.11 3.11-3.17 3.11zM246.34 10a2.05 2.05 0 0 1-.13.75 1.74 1.74 0 0 1-.37.59 1.68 1.68 0 0 1-.58.39 2.12 2.12 0 0 1-1.5 0 1.67 1.67 0 0 1-.58-.38 1.71 1.71 0 0 1-.37-.58 2.05 2.05 0 0 1-.13-.74 2.09 2.09 0 0 1 .13-.75 1.77 1.77 0 0 1 .37-.6 1.68 1.68 0 0 1 .58-.39 1.91 1.91 0 0 1 .75-.14 2 2 0 0 1 .75.13 1.64 1.64 0 0 1 .58.38 1.71 1.71 0 0 1 .37.59 2.11 2.11 0 0 1 .13.75zm-.24 0a1.92 1.92 0 0 0-.11-.67 1.54 1.54 0 0 0-.32-.53 1.44 1.44 0 0 0-.5-.34 1.7 1.7 0 0 0-.65-.12 1.63 1.63 0 0 0-.65.13 1.46 1.46 0 0 0-.5.35 1.56 1.56 0 0 0-.32.52 2 2 0 0 0 0 1.32 1.56 1.56 0 0 0 .32.52 1.46 1.46 0 0 0 .5.35 1.75 1.75 0 0 0 1.3 0 1.47 1.47 0 0 0 .5-.35 1.57 1.57 0 0 0 .32-.52 1.84 1.84 0 0 0 .11-.66zm-.65 1s0 .05-.06.05h-.3l-.71-.92a.07.07 0 0 0-.06 0h-.11V11s0 .07-.06.07h-.19s-.06 0-.06-.07V9h.72a1.18 1.18 0 0 1 .28 0 .63.63 0 0 1 .22.1.47.47 0 0 1 .15.18.64.64 0 0 1-.09.66.61.61 0 0 1-.36.19.07.07 0 0 0 0 .05l.68.84a.07.07 0 0 1-.05.05zm-.55-1.57a.38.38 0 0 0-.1-.29.46.46 0 0 0-.32-.09h-.31v.72s0 .06.06.06h.21a.62.62 0 0 0 .4-.1.37.37 0 0 0 .07-.23z"
    />
</svg>